<?xml version="1.0" encoding="utf-8"?>
<!-- Generator: Adobe Illustrator 16.0.0, SVG Export Plug-In . SVG Version: 6.00 Build 0)  -->
<!DOCTYPE svg PUBLIC "-//W3C//DTD SVG 1.1//EN" "http://www.w3.org/Graphics/SVG/1.1/DTD/svg11.dtd">
<svg version="1.1" id="Capa_1" xmlns="http://www.w3.org/2000/svg" xmlns:xlink="http://www.w3.org/1999/xlink" x="0px" y="0px"
	 width="87.9px" height="102px" viewBox="0 0 87.9 102" style="enable-background:new 0 0 87.9 102;" xml:space="preserve">
<polygon style="fill:#70BE95;" points="87.3,25.9 44,1 0.7,26 0.8,76 44.1,101 87.4,75.9 "/>
<g>
	<path style="fill:#706F6F;stroke:#FFFFFF;stroke-miterlimit:10;" d="M29.4,58c-0.3,0-0.5,0-0.8,0h-8v16.3H18V27.4h12.3
		c3.6,0.5,6.6,2,9.1,4.5c3,3,4.5,6.6,4.5,10.8s-1.5,7.9-4.5,10.8c-2.1,2.1-4.4,3.4-7.1,4.1l10.8,16.7h-3.3L29.4,58z M20.7,30.1v25.3
		h8c3.5,0,6.4-1.2,8.9-3.7s3.7-5.5,3.7-9s-1.2-6.5-3.7-8.9c-2.5-2.5-5.4-3.7-8.9-3.7H20.7z"/>
	<path style="fill:#706F6F;stroke:#FFFFFF;stroke-miterlimit:10;" d="M58.3,27.4c2.4,0,4.5,0.8,6.2,2.5s2.6,3.8,2.6,6.2
		c0,2.4-1.2,4.7-3.7,6.8c2.2,0.4,4.2,1.7,6.2,3.9c3.1,3.1,4.7,6.9,4.7,11.4c0,4.4-1.6,8.3-4.7,11.5c-2.9,3-6.4,4.5-10.4,4.6l0,0
		h-9.1V27.4H58.3z M52.6,30.1v12H59c1.5-0.1,2.7-0.7,3.8-1.6c1.2-1.1,1.8-2.5,1.8-4.3S64,33,62.8,31.8c-1.2-1.1-2.7-1.7-4.4-1.7
		H52.6z M52.6,44.9v26.8H59l0,0c3.3-0.2,6.1-1.6,8.4-4c2.6-2.7,3.9-5.8,3.9-9.5s-1.3-6.8-3.9-9.4c-2.6-2.6-5.7-3.9-9.4-3.9H52.6z"/>
</g>
</svg>
